<?xml version="1.0" encoding="utf-8"?>
<!-- Generator: Adobe Illustrator 16.0.0, SVG Export Plug-In . SVG Version: 6.00 Build 0)  -->
<!DOCTYPE svg PUBLIC "-//W3C//DTD SVG 1.1//EN" "http://www.w3.org/Graphics/SVG/1.1/DTD/svg11.dtd">
<svg version="1.1" id="Layer_1" xmlns="http://www.w3.org/2000/svg" xmlns:xlink="http://www.w3.org/1999/xlink" x="0px" y="0px"
	 width="460.096px" height="98.211px" viewBox="0 0 460.096 98.211" enable-background="new 0 0 460.096 98.211"
	 xml:space="preserve">
<g>
	<g>
		<g>
			<path fill="#FFFFFF" d="M124.602,1.863h9.153c1.367,0,2.417,0.077,3.147,0.239c0.723,0.161,1.685,0.61,2.873,1.349
				c1.187,0.739,1.783,2.17,1.783,4.288c0,2.699-1.308,4.432-3.922,5.201c1.438,0.302,2.535,0.933,3.292,1.896
				c0.762,0.962,1.142,2.163,1.142,3.596c0,1.048-0.208,2.019-0.626,2.908c-0.419,0.887-1.122,1.72-2.12,2.502
				c-0.994,0.782-2.671,1.172-5.024,1.172h-9.697V1.863z M129.993,11.047h2.733c0.747,0,1.284-0.035,1.605-0.1
				s0.699-0.274,1.138-0.635c0.439-0.357,0.661-0.971,0.661-1.838c0-0.629-0.187-1.161-0.547-1.594
				c-0.322-0.432-0.804-0.693-1.445-0.779h-1.476h-2.668V11.047z M129.993,20.871h2.986c2.377,0,3.564-0.973,3.564-2.922
				c0-0.736-0.191-1.341-0.576-1.819c-0.385-0.476-0.941-0.803-1.669-0.973h-1.35h-2.956V20.871z"/>
			<path fill="#FFFFFF" d="M151.861,6.679c2.57,0,4.603,0.844,6.104,2.532c1.499,1.688,2.245,3.987,2.245,6.892
				c0,2.884-0.746,5.177-2.245,6.875c-1.5,1.698-3.533,2.55-6.104,2.55c-2.502,0-4.494-0.838-5.974-2.518
				c-1.476-1.678-2.213-3.98-2.213-6.908c0-2.905,0.731-5.204,2.2-6.892C147.34,7.523,149.335,6.679,151.861,6.679z M148.844,16.103
				c0,3.779,0.995,5.668,2.986,5.668c1.004,0,1.768-0.46,2.278-1.376c0.238-0.43,0.416-1,0.546-1.715
				c0.131-0.714,0.194-1.575,0.194-2.577c0-3.779-1.009-5.666-3.019-5.666C149.838,10.438,148.844,12.324,148.844,16.103z"/>
			<path fill="#FFFFFF" d="M170.198,6.679c2.568,0,4.602,0.844,6.097,2.532c1.499,1.688,2.251,3.987,2.251,6.892
				c0,2.884-0.753,5.177-2.251,6.875c-1.495,1.698-3.529,2.55-6.097,2.55c-2.506,0-4.496-0.838-5.972-2.518
				c-1.476-1.678-2.218-3.98-2.218-6.908c0-2.905,0.737-5.204,2.202-6.892C165.674,7.523,167.67,6.679,170.198,6.679z
				 M167.179,16.103c0,3.779,0.996,5.668,2.986,5.668c1.007,0,1.764-0.46,2.278-1.376c0.239-0.43,0.419-1,0.546-1.715
				c0.13-0.714,0.197-1.575,0.197-2.577c0-3.779-1.007-5.666-3.021-5.666C168.175,10.438,167.179,12.324,167.179,16.103z"/>
			<path fill="#FFFFFF" d="M191.389,0h5.008v20.866v2.314l0.162,1.833h-4.625l-0.35-1.702c-0.667,0.726-1.361,1.269-2.087,1.621
				c-0.729,0.353-1.532,0.53-2.411,0.53c-2.074,0-3.721-0.823-4.927-2.47c-1.209-1.651-1.815-3.876-1.815-6.683
				c0-2.909,0.624-5.244,1.87-6.999c1.244-1.752,2.929-2.631,5.055-2.631c1.545,0,2.919,0.589,4.121,1.766V0z M191.389,12.265
				c-0.234-0.556-0.593-1.005-1.075-1.347c-0.484-0.344-1.02-0.514-1.62-0.514c-1.029,0-1.809,0.492-2.347,1.476
				c-0.234,0.449-0.428,1.051-0.578,1.797c-0.147,0.75-0.226,1.586-0.226,2.505c0,3.682,1.053,5.524,3.15,5.524
				c1.22,0,2.118-0.653,2.695-1.959V12.265z"/>
			<path fill="#FFFFFF" d="M201.312,18.977c1.197,1.754,2.6,2.634,4.206,2.634c0.645,0,1.166-0.143,1.574-0.433
				c0.403-0.287,0.61-0.677,0.61-1.169c0-0.72-0.664-1.254-1.99-1.593l-1.383-0.388l-1.731-0.542
				c-0.345-0.148-0.731-0.329-1.158-0.544c-0.214-0.104-0.567-0.298-1.06-0.575c-1.007-0.575-1.51-1.823-1.51-3.739
				c0-1.728,0.645-3.15,1.93-4.268c1.282-1.121,2.89-1.68,4.815-1.68c1.563,0,2.773,0.266,3.646,0.801
				c0.866,0.538,1.471,1.005,1.812,1.413c0.387,0.385,0.749,0.89,1.088,1.511l-2.822,2.408c-1.029-1.607-2.247-2.408-3.661-2.408
				c-0.597,0-1.095,0.132-1.492,0.398c-0.395,0.267-0.593,0.645-0.593,1.134c0,0.363,0.158,0.694,0.48,0.995
				c0.276,0.191,0.878,0.436,1.799,0.734l1.346,0.417c0.43,0.126,0.793,0.248,1.092,0.366c0.301,0.118,0.65,0.269,1.045,0.449
				c0.398,0.18,1.009,0.565,1.829,1.15c0.823,0.586,1.239,1.753,1.239,3.5c0,1.75-0.634,3.172-1.895,4.271
				c-1.263,1.097-2.944,1.646-5.041,1.646c-3.061,0-5.43-1.32-7.1-3.962L201.312,18.977z"/>
			<path fill="#FFFFFF" d="M225.041,13.775c-0.235-2.269-1.145-3.406-2.731-3.406c-1.008,0-1.776,0.508-2.311,1.522
				c-0.534,1.017-0.801,2.449-0.801,4.306c0,3.693,1.013,5.542,3.048,5.542c0.943,0,1.625-0.314,2.054-0.946
				c0.367-0.608,0.668-1.362,0.9-2.266l4.434,1.239c-0.516,1.826-1.414,3.232-2.698,4.218c-1.283,0.987-2.89,1.479-4.819,1.479
				c-2.483,0-4.456-0.807-5.921-2.419c-1.468-1.613-2.201-3.82-2.201-6.621c0-2.948,0.761-5.311,2.28-7.082
				c1.521-1.774,3.553-2.661,6.103-2.661c1.86,0,3.423,0.538,4.686,1.612c1.266,1.075,2.1,2.602,2.503,4.581L225.041,13.775z"/>
			<path fill="#FFFFFF" d="M231.53,0h5.07v9.185c0.854-0.815,1.717-1.446,2.594-1.896c0.832-0.387,1.727-0.577,2.686-0.577
				c1.666,0,2.807,0.395,3.428,1.187c0.617,0.794,1,1.509,1.15,2.151c0.066,0.319,0.115,0.686,0.162,1.091
				c0.037,0.409,0.062,0.889,0.062,1.446v12.426h-5.076V13.549v-1.317c0-0.492-0.189-0.904-0.58-1.234
				c-0.387-0.331-0.861-0.5-1.42-0.5c-1.143,0-2.145,0.688-3.006,2.054v12.461h-5.07V0z"/>
			<path fill="#FFFFFF" d="M259.401,12.458c0-1.393-0.754-2.089-2.252-2.089c-1.477,0-2.449,0.729-2.922,2.183l-4.463-1.121
				c0.619-1.607,1.539-2.799,2.764-3.581c1.219-0.782,2.803-1.172,4.752-1.172c1.176,0,2.205,0.135,3.084,0.401
				c0.873,0.268,1.633,0.653,2.262,1.155c0.631,0.502,1.084,1.145,1.365,1.927c0.279,0.782,0.414,1.685,0.414,2.712v8.575v2.182
				l0.119,0.739l0.238,0.643h-4.723l-0.385-1.863c-1.584,1.54-3.373,2.312-5.363,2.312c-1.584,0-2.879-0.471-3.885-1.412
				c-1.006-0.943-1.506-2.174-1.506-3.693c0-1.543,0.445-2.699,1.348-3.47c0.898-0.769,1.736-1.315,2.516-1.634
				c0.785-0.322,2.01-0.675,3.682-1.062l1.795-0.448l1.16-0.323V12.458z M259.401,16.826l-0.707,0.193l-0.967,0.32l-1.094,0.354
				l-0.541,0.19l-0.578,0.227c-1.092,0.492-1.641,1.22-1.641,2.183c0,0.515,0.166,0.932,0.498,1.252
				c0.332,0.319,0.799,0.48,1.396,0.48c0.838,0,1.545-0.226,2.121-0.674c0.578-0.452,0.963-0.834,1.152-1.156
				c0.197-0.319,0.312-0.631,0.359-0.93V16.826z"/>
			<path fill="#FFFFFF" d="M267.233,7.192h5.072v1.54c1.346-1.367,2.848-2.053,4.516-2.053c1.986,0,3.564,0.86,4.742,2.585
				c1.168,1.723,1.756,4.007,1.756,6.854c0,2.89-0.609,5.169-1.826,6.841c-1.215,1.667-2.879,2.503-4.996,2.503
				c-0.873,0-1.643-0.159-2.316-0.474c-0.674-0.317-1.297-0.823-1.875-1.516v7.352h-5.072V7.192z M272.305,19.81
				c0.494,1.288,1.393,1.93,2.699,1.93c2.031,0,3.049-1.809,3.049-5.43c0-3.852-0.996-5.776-2.984-5.776
				c-1.332,0-2.248,0.766-2.764,2.312V19.81z"/>
			<path fill="#FFFFFF" d="M285.633,7.192h5.072v1.54c1.342-1.367,2.85-2.053,4.516-2.053c1.984,0,3.564,0.86,4.736,2.585
				c1.174,1.723,1.764,4.007,1.764,6.854c0,2.89-0.613,5.169-1.828,6.841c-1.219,1.667-2.879,2.503-4.994,2.503
				c-0.875,0-1.65-0.159-2.318-0.474c-0.676-0.317-1.299-0.823-1.875-1.516v7.352h-5.072V7.192z M290.706,19.81
				c0.49,1.288,1.393,1.93,2.695,1.93c2.037,0,3.053-1.809,3.053-5.43c0-3.852-0.996-5.776-2.988-5.776
				c-1.326,0-2.246,0.766-2.76,2.312V19.81z"/>
			<path fill="#FFFFFF" d="M308.497,17.019v0.32c0,1.306,0.293,2.36,0.881,3.164s1.352,1.204,2.293,1.204
				c1.414,0,2.453-0.92,3.119-2.764l4.463,1.188c-1.266,3.554-3.834,5.331-7.707,5.331c-2.506,0-4.473-0.812-5.908-2.441
				c-1.436-1.626-2.152-3.874-2.152-6.741s0.744-5.188,2.232-6.954c1.488-1.766,3.465-2.647,5.924-2.647
				c2.506,0,4.416,0.855,5.748,2.567c1.326,1.714,1.988,4.207,1.988,7.483v0.29H308.497z M308.497,14.224h5.973
				c0-1.199-0.262-2.145-0.771-2.841c-0.516-0.693-1.221-1.043-2.119-1.043c-0.902,0-1.639,0.336-2.219,1.011
				C308.784,12.025,308.497,12.982,308.497,14.224z"/>
			<path fill="#FFFFFF" d="M321.596,7.192h5.072v1.992l0.643-0.521c0.881-0.759,1.66-1.28,2.346-1.562
				c0.682-0.282,1.418-0.422,2.213-0.422c1.607,0,2.752,0.419,3.436,1.253c0.6,0.752,1.008,1.458,1.225,2.125
				c0.061,0.298,0.111,0.659,0.154,1.076c0.047,0.419,0.064,0.93,0.064,1.529v12.351h-5.068V13.71v-1.252
				c-0.131-1.159-0.795-1.733-1.992-1.733c-0.514,0-1.025,0.156-1.543,0.465c-0.514,0.309-1.006,0.798-1.477,1.459v12.365h-5.072
				V7.192z"/>
			<path fill="#FFFFFF" d="M350.11,13.775c-0.24-2.269-1.148-3.406-2.734-3.406c-1.002,0-1.773,0.508-2.305,1.522
				c-0.539,1.017-0.803,2.449-0.803,4.306c0,3.693,1.01,5.542,3.045,5.542c0.945,0,1.631-0.314,2.055-0.946
				c0.367-0.608,0.664-1.362,0.9-2.266l4.434,1.239c-0.514,1.826-1.414,3.232-2.697,4.218c-1.285,0.987-2.891,1.479-4.82,1.479
				c-2.482,0-4.457-0.807-5.922-2.419c-1.465-1.613-2.201-3.82-2.201-6.621c0-2.948,0.76-5.311,2.281-7.082
				c1.521-1.774,3.555-2.661,6.104-2.661c1.861,0,3.424,0.538,4.686,1.612c1.264,1.075,2.098,2.602,2.506,4.581L350.11,13.775z"/>
			<path fill="#FFFFFF" d="M361.059,17.019v0.32c0,1.306,0.293,2.36,0.883,3.164c0.586,0.804,1.352,1.204,2.297,1.204
				c1.412,0,2.447-0.92,3.115-2.764l4.463,1.188c-1.266,3.554-3.836,5.331-7.707,5.331c-2.506,0-4.477-0.812-5.906-2.441
				c-1.438-1.626-2.156-3.874-2.156-6.741s0.748-5.188,2.234-6.954c1.488-1.766,3.463-2.647,5.922-2.647
				c2.508,0,4.424,0.855,5.746,2.567c1.33,1.714,1.992,4.207,1.992,7.483v0.29H361.059z M361.059,14.224h5.971
				c0-1.199-0.254-2.145-0.771-2.841c-0.512-0.693-1.217-1.043-2.117-1.043c-0.898,0-1.639,0.336-2.217,1.011
				C361.346,12.025,361.059,12.982,361.059,14.224z"/>
			<path fill="#FFFFFF" d="M374.159,7.192h5.074v1.992l0.641-0.521c0.881-0.759,1.66-1.28,2.346-1.562
				c0.684-0.282,1.426-0.422,2.219-0.422c1.604,0,2.746,0.419,3.432,1.253c0.6,0.752,1.006,1.458,1.225,2.125
				c0.061,0.298,0.117,0.659,0.156,1.076c0.043,0.419,0.064,0.93,0.064,1.529v12.351h-5.072V13.71v-1.252
				c-0.127-1.159-0.791-1.733-1.99-1.733c-0.516,0-1.027,0.156-1.545,0.465c-0.51,0.309-1.004,0.798-1.475,1.459v12.365h-5.074
				V7.192z"/>
			<path fill="#FFFFFF" d="M390.407,7.192h2.379v-4.4h5.074v4.4h3.852v3.629h-3.947v8.028c0,0.511,0.027,0.898,0.096,1.156
				c0,0.403,0.193,0.752,0.594,1.043c0.393,0.29,0.859,0.433,1.396,0.433l0.896-0.032c0.234,0,0.559-0.087,0.965-0.256v3.878
				l-0.58,0.133l-1.379,0.258h-1.158c-2.012,0-3.395-0.385-4.141-1.156c-0.752-0.769-1.217-1.492-1.396-2.166
				c-0.182-0.675-0.271-1.567-0.271-2.683v-8.635h-2.379V7.192z"/>
			<path fill="#FFFFFF" d="M403.157,7.192h5.07v3.112c1.574-2.418,3.457-3.625,5.65-3.625h0.742v4.817l-0.959-0.033
				c-1.492,0-2.77,0.472-3.834,1.412c-1.066,0.943-1.6,2.088-1.6,3.435v8.704h-5.07V7.192z"/>
			<path fill="#FFFFFF" d="M420.428,25.462c-1.539,0-2.643-0.406-3.305-1.218c-0.6-0.79-0.988-1.521-1.178-2.193
				c-0.182-0.675-0.27-1.567-0.27-2.68V7.192h5.072v11.276v1.346c0.105,1.092,0.73,1.635,1.879,1.635
				c1.027,0,2.053-0.629,3.066-1.893V7.192h5.01v17.821h-5.01v-2.15C424.131,24.597,422.375,25.462,420.428,25.462z"/>
			<path fill="#FFFFFF" d="M433.594,7.192h5.074v2.024c1.93-1.693,3.789-2.538,5.57-2.538c2.082,0,3.502,0.879,4.254,2.631
				c1.799-1.752,3.613-2.631,5.459-2.631c0.854,0,1.633,0.167,2.328,0.497c0.691,0.333,1.246,0.764,1.652,1.288
				c0.408,0.523,0.684,1.121,0.838,1.784c0.148,0.664,0.219,1.503,0.219,2.511v12.254h-5.068V13.557v-1.32
				c-0.066-0.494-0.291-0.903-0.684-1.223c-0.383-0.322-0.859-0.481-1.418-0.481c-1.166,0-2.145,0.665-2.939,1.995v12.485h-5.076
				V13.525V12.27c0-0.494-0.182-0.906-0.537-1.239c-0.363-0.33-0.836-0.497-1.424-0.497c-1.285,0-2.344,0.696-3.174,2.092v12.388
				h-5.074V7.192z"/>
		</g>
	</g>
	<g>
		<path fill="#FFFFFF" d="M124.602,38.837h13.571v22.54h19.305v-22.54h13.493v58.245h-13.493V72.12h-19.305v24.962h-13.571V38.837z"
			/>
		<path fill="#FFFFFF" d="M189.47,76.967v0.809c0,3.285,0.739,5.938,2.226,7.957c1.478,2.018,3.401,3.025,5.773,3.025
			c3.553,0,6.162-2.312,7.838-6.945l11.229,2.988c-3.183,8.943-9.642,13.41-19.394,13.41c-6.297,0-11.248-2.047-14.858-6.136
			c-3.613-4.097-5.419-9.748-5.419-16.966c0-7.217,1.877-13.047,5.618-17.49c3.744-4.443,8.711-6.666,14.904-6.666
			c6.301,0,11.12,2.156,14.461,6.465c3.339,4.309,5.008,10.582,5.008,18.82v0.729H189.47z M189.47,69.938h15.027
			c0-3.017-0.644-5.397-1.939-7.15c-1.29-1.747-3.072-2.626-5.328-2.626c-2.263,0-4.124,0.846-5.577,2.546
			C190.199,64.404,189.47,66.814,189.47,69.938z"/>
		<path fill="#FFFFFF" d="M233.661,76.967v0.809c0,3.285,0.742,5.938,2.221,7.957c1.48,2.018,3.406,3.025,5.783,3.025
			c3.549,0,6.16-2.312,7.828-6.945l11.229,2.988c-3.176,8.943-9.639,13.41-19.387,13.41c-6.303,0-11.258-2.047-14.863-6.136
			c-3.607-4.097-5.413-9.748-5.413-16.966c0-7.217,1.869-13.047,5.612-17.49c3.744-4.443,8.708-6.666,14.91-6.666
			c6.301,0,11.115,2.156,14.459,6.465c3.338,4.309,5.008,10.582,5.008,18.82v0.729H233.661z M233.661,69.938h15.029
			c0-3.017-0.646-5.397-1.939-7.15c-1.295-1.747-3.072-2.626-5.334-2.626c-2.264,0-4.119,0.846-5.576,2.546
			C234.391,64.404,233.661,66.814,233.661,69.938z"/>
		<path fill="#FFFFFF" d="M266.622,52.244h12.768v5.01l1.613-1.309c2.207-1.906,4.172-3.221,5.893-3.928
			c1.725-0.709,3.586-1.064,5.576-1.064c4.039,0,6.918,1.055,8.648,3.153c1.504,1.89,2.523,3.671,3.064,5.345
			c0.166,0.754,0.295,1.66,0.41,2.713c0.104,1.051,0.158,2.334,0.158,3.844v31.074h-12.764V68.648v-3.153
			c-0.324-2.907-1.996-4.362-5.01-4.362c-1.295,0-2.586,0.392-3.877,1.172c-1.293,0.779-2.529,2.008-3.713,3.674v31.104h-12.768
			V52.244z"/>
		<path fill="#FFFFFF" d="M320.182,52.244l6.545,22.541l1.453,5.254c0.373,1.506,0.564,3.443,0.564,5.811
			c0-1.988,0.129-3.604,0.404-4.846l0.805-3.389l0.73-2.83l6.711-22.541h12.594l-14.945,44.838h-13.244l-14.785-44.838H320.182z"/>
		<path fill="#FFFFFF" d="M352.004,34.152h12.771v62.93h-12.771V34.152z"/>
		<path fill="#FFFFFF" d="M371.881,34.152h12.764v12.925h-12.764V34.152z M371.881,52.086h12.764v44.996h-12.764V52.086z"/>
		<path fill="#FFFFFF" d="M403.143,76.967v0.809c0,3.285,0.738,5.938,2.221,7.957c1.477,2.018,3.404,3.025,5.777,3.025
			c3.553,0,6.162-2.312,7.834-6.945l11.23,2.988c-3.176,8.943-9.641,13.41-19.391,13.41c-6.301,0-11.256-2.047-14.863-6.136
			c-3.609-4.097-5.412-9.748-5.412-16.966c0-7.217,1.867-13.047,5.615-17.49c3.74-4.443,8.709-6.666,14.902-6.666
			c6.307,0,11.125,2.156,14.467,6.465c3.338,4.309,5.004,10.582,5.004,18.82v0.729H403.143z M403.143,69.938h15.025
			c0-3.017-0.643-5.397-1.939-7.15c-1.297-1.747-3.07-2.626-5.336-2.626c-2.262,0-4.113,0.846-5.572,2.546
			C403.87,64.404,403.143,66.814,403.143,69.938z"/>
		<path fill="#FFFFFF" d="M431.657,52.244h5.979V41.178h12.768v11.066h9.693v9.133h-9.934V81.57c0,1.291,0.078,2.262,0.24,2.909
			c0,1.023,0.494,1.901,1.49,2.628c0.998,0.724,2.17,1.086,3.514,1.086l2.262-0.08c0.592,0,1.408-0.215,2.428-0.645v9.762
			l-1.457,0.322l-3.475,0.658h-2.904c-5.061,0-8.537-0.973-10.424-2.908c-1.891-1.938-3.053-3.754-3.512-5.451
			c-0.457-1.701-0.689-3.945-0.689-6.748V61.377h-5.979V52.244z"/>
	</g>
	<g>
		<path fill="#FF3906" d="M65.337,44.089"/>
		<path fill="#FF3906" d="M69.659,44.089"/>
		<path fill="#FFFFFF" d="M38.706,79.533c0,0-0.053,0-0.082,0c-9.434,0.057-14.977-1.795-17.429-5.826
			c-2.834-4.664-0.28-9.521-0.28-9.521c0.651-1.242,1.211-2.294,1.232-2.336c0.022-0.046,0.635-1.067,1.353-2.273l5.331-8.959
			c0.721-1.207,0.613-3.113-0.232-4.234L10.473,22.44c-0.849-1.117-2.691-2.026-4.094-2.023l-3.802,0.027
			c-1.406,0.008-2.562-1.14-2.567-2.542L0,16.302c-0.006-1.403,1.134-2.557,2.539-2.567l7.159-0.035
			c1.403-0.013,3.246,0.901,4.094,2.022l22.875,30.222c0.846,1.119,0.949,3.022,0.232,4.229l-7.597,12.756
			c-0.718,1.209-1.72,3.269-2.229,4.578c0,0-0.705,1.811-0.151,2.717c0.383,0.627,2.351,2.666,11.667,2.615c0.022,0,0.045,0,0.066,0
			c5.105-0.04,33.826,0.004,33.826,0.004c1.399-0.012,3.002,1.056,2.606,2.533l-0.565,1.721c-0.539,1.336-1.397,2.451-2.8,2.479
			L38.706,79.533z"/>
		<path fill="#FFFFFF" d="M34.354,89.554c0,2.854-2.311,5.161-5.164,5.161c-2.851,0-5.16-2.307-5.16-5.161
			c0-2.849,2.309-5.16,5.16-5.16C32.042,84.394,34.354,86.705,34.354,89.554z"/>
		<path fill="#FFFFFF" d="M84.507,89.554c0,2.854-2.311,5.161-5.165,5.161c-2.844,0-5.154-2.307-5.154-5.161
			c0-2.849,2.311-5.16,5.154-5.16C82.196,84.394,84.507,86.705,84.507,89.554z"/>
		<polygon fill="#FBE00A" points="84.565,28.787 66.193,24.411 70.564,6.037 88.941,10.407 		"/>
		<rect x="54.037" y="7.967" fill="#FF3906" width="18.887" height="18.887"/>
		<polygon fill="#FFFFFF" points="41.316,28.787 59.688,24.411 55.318,6.037 36.944,10.407 		"/>
		<path fill="#00A0C6" d="M34.636,19.082c-1.408,0-2.046,1.035-1.428,2.292l12.306,25.054c0.616,1.264,2.273,2.294,3.679,2.294
			h27.698c1.405,0,3.001-1.059,3.546-2.354l10.507-24.933c0.545-1.293-0.156-2.354-1.562-2.354H34.636z"/>
	</g>
</g>
</svg>
