<?xml version="1.0" encoding="utf-8"?>
<!-- Generator: Adobe Illustrator 27.0.0, SVG Export Plug-In . SVG Version: 6.00 Build 0)  -->
<svg version="1.1" id="Layer_1" xmlns="http://www.w3.org/2000/svg" xmlns:xlink="http://www.w3.org/1999/xlink" x="0px" y="0px"
	 viewBox="0 0 32.24 33.96" style="enable-background:new 0 0 32.24 33.96;" xml:space="preserve">
<style type="text/css">
	.st0{fill:#FFFFFF;}
	.st1{fill:#00AEEF;}
</style>
<g>
	<g>
		<path class="st0" d="M28.34,31.79l3.73-13.1c0.27-0.81,0.2-1.63-0.27-2.44L24,1.65c-0.41-0.75-1.02-1.29-1.83-1.49
			c-0.81-0.27-1.63-0.2-2.37,0.27L5.47,8.44c-0.75,0.34-1.22,1.02-1.49,1.9l-3.87,13.3c-0.2,0.81-0.13,1.56,0.27,2.31
			c0.34,0.75,0.95,1.22,1.77,1.43l22.53,6.45c0.81,0.27,1.56,0.13,2.24-0.27C27.67,33.21,28.14,32.6,28.34,31.79z M14.77,12.65
			l2.72-3.66v5.97c0.88-1.22,1.56-2.1,1.97-2.44c0.81-0.81,1.7-1.15,2.58-1.15c1.16,0,2.04,0.41,2.78,1.22
			c0.61,0.68,0.88,1.49,0.88,2.44v10.72h-2.65V15.57c0-0.88-0.41-1.36-1.15-1.36c-0.61,0-2.1,1.56-4.41,4.75v6.79h-2.72v-3.12
			c-1.22,2.1-2.65,3.12-4.48,3.12c-1.49,0-2.51-0.54-3.12-1.63c-0.61-1.08-0.95-2.92-0.95-5.43c0-2.58,0.2-4.41,0.75-5.43
			c0.61-1.29,1.7-1.9,3.19-1.9c1.7,0,3.19,1.22,4.61,3.6V12.65z"/>
		<path class="st1" d="M17.49,8.98l-2.72,3.66v2.31c-1.42-2.38-2.92-3.6-4.61-3.6c-1.49,0-2.58,0.61-3.19,1.9
			c-0.54,1.02-0.75,2.85-0.75,5.43c0,2.51,0.34,4.35,0.95,5.43c0.61,1.09,1.63,1.63,3.12,1.63c1.83,0,3.26-1.02,4.48-3.12v3.12h2.72
			v-6.79c2.31-3.19,3.8-4.75,4.41-4.75c0.75,0,1.15,0.48,1.15,1.36v10.18h2.65V15.02c0-0.95-0.27-1.77-0.88-2.44
			c-0.75-0.81-1.63-1.22-2.78-1.22c-0.88,0-1.76,0.34-2.58,1.15c-0.41,0.34-1.08,1.22-1.97,2.44V8.98z M9.07,15.23
			c0.14-0.68,0.55-1.02,1.15-1.02c1.02,0,2.38,1.63,4.07,4.82c-1.7,2.71-3.05,4.07-4.07,4.07c-0.61,0-0.95-0.34-1.15-1.02
			c-0.13-0.61-0.2-1.76-0.2-3.39C8.86,16.92,8.93,15.77,9.07,15.23z"/>
		<path class="st0" d="M10.22,14.21c-0.61,0-1.02,0.34-1.15,1.02c-0.13,0.54-0.2,1.7-0.2,3.46c0,1.63,0.07,2.78,0.2,3.39
			c0.2,0.68,0.55,1.02,1.15,1.02c1.02,0,2.38-1.36,4.07-4.07C12.6,15.84,11.24,14.21,10.22,14.21z"/>
	</g>
</g>
</svg>
