<?xml version="1.0" encoding="utf-8"?>
<!-- Generator: Adobe Illustrator 27.0.0, SVG Export Plug-In . SVG Version: 6.00 Build 0)  -->
<svg version="1.1" id="Layer_1" xmlns="http://www.w3.org/2000/svg" xmlns:xlink="http://www.w3.org/1999/xlink" x="0px" y="0px"
	 viewBox="0 0 32.92 26.34" style="enable-background:new 0 0 32.92 26.34;" xml:space="preserve">
<style type="text/css">
	.st0{fill:#FFFFFF;}
</style>
<g>
	<path class="st0" d="M0.04,23.68c6.12-2.86,18.04-5.91,32.85-7.51l-0.18,1.27c-7.08,0.95-22,5.07-29.27,8.9L0.04,23.68z
		 M5.45,18.09c1.95,0,3.72-0.81,4.32-1.24c-0.33-0.5-0.64-1.29-0.68-1.81c-0.69,0.3-1.6,0.54-2.35,0.54c-2.08,0-2.89-1.16-2.89-2.52
		c0-2.42,2.45-4.01,5.43-4.48L9.81,6.7c-0.01,0-0.01,0-0.02,0C9.52,6.74,9.25,6.76,9,6.76c-2.03,0-3.16-1.04-3.16-2.68
		c0-1.37,0.87-2.43,2.39-2.43c0.59,0,1.25,0.25,1.5,0.62C9.06,2.39,8.61,2.89,8.61,3.62c0,0.78,0.66,1.32,1.45,1.32
		c1.21,0,1.86-0.93,1.86-1.96C11.92,0.88,9.7,0,8.11,0C5.14,0,2.85,1.77,2.85,4.36c0,1.84,1.57,3.08,3.29,3.21
		C2.59,8.31,0,10.57,0,13.66C0,15.7,1.43,18.09,5.45,18.09 M30.99,6.94c0-0.62,0.44-1.08,0.89-1.28l-0.72-1.3
		c-1.41,0.38-2.9,2.77-5.88,3.04c-0.41-1.29-1.25-2.02-2.17-2.02c-0.83,0-1.4,0.53-1.4,1.41c0,1.17,0.95,1.93,2.25,2.09
		c0.07,0.2,0.11,0.64,0.11,1.1c0,1.6-0.89,3.84-2.59,3.84c-1.1,0-1.64-1.04-1.64-2.27c0-1.51,0.57-2.93,1.1-3.49
		c-0.13-0.41-0.2-0.8-0.2-1.21c0-0.35,0.06-0.69,0.19-1.06c-2.09,0.84-3.73,3.43-3.73,6.29c0,0.1,0.01,0.39,0.04,0.57
		c-0.84,1.17-2.2,2.02-3.15,2.02c-0.7,0-0.92-0.51-0.92-0.94c0-0.27,0.06-0.71,0.27-1.49l1.17-4.38l2.09-0.21l0.51-1.83l-2.09,0.2
		l0.96-3.47l-2.29,0.71c-0.37,1.46-0.84,2.9-2.81,3.28l-0.5,1.82c0.37-0.07,0.68-0.12,1.17-0.19c-0.4,1.33-0.94,3.35-1.12,4.11
		c-0.19,0.8-0.28,1.42-0.28,1.83c0,1.83,1.23,2.83,2.9,2.83c1.87,0,3.66-1.38,4.52-2.64c0.39,0.93,1.52,1.78,2.99,1.78
		c2.62,0,5.03-2.58,5.03-6.11c0-0.45-0.04-0.91-0.09-1.13c1.01-0.08,2.32-0.5,3.08-1.07c-0.02,0.07-0.03,0.18-0.03,0.26
		c0,1.3,1.68,3.07,1.68,4.32c0,1.47-1.06,1.98-1.74,1.98c-0.23,0-0.45-0.03-0.56-0.08c0.09-0.15,0.13-0.42,0.13-0.57
		c0-0.61-0.48-1.06-1.07-1.06c-0.65,0-1.2,0.53-1.2,1.26c0,1.33,1.28,1.84,2.69,1.84c1.98,0,4.37-1.28,4.37-3.97
		C32.92,9.58,30.99,8.1,30.99,6.94"/>
</g>
</svg>
