<?xml version="1.0" encoding="utf-8"?>
<!-- Generator: Adobe Illustrator 27.0.0, SVG Export Plug-In . SVG Version: 6.00 Build 0)  -->
<svg version="1.1" id="Layer_1" xmlns="http://www.w3.org/2000/svg" xmlns:xlink="http://www.w3.org/1999/xlink" x="0px" y="0px"
	 viewBox="0 0 72.1 24.27" style="enable-background:new 0 0 72.1 24.27;" xml:space="preserve">
<style type="text/css">
	.st0{fill:#F16734;}
	.st1{fill:#FFFFFF;}
</style>
<g>
	<path class="st0" d="M9.44,10.75h4.68c0,0,1.42-9.01-4.97-10.57c0,0-8.94-2.06-9.16,7.73v8.66c0,0-0.28,8.3,8.02,7.66
		c0,0,7.09,0.5,6.32-11.5h-7.1v3.69h2.34v2.91c0,0,0.28,0.57-0.85,0.57s-3.12,0-3.12,0s-0.99,0-0.99-1.28c0-1.28,0-7.81,0-7.81
		s0-0.57,0.57-1.06c0.57-0.5,0.57-0.5,0.57-0.5s0.21-0.28,0.21-1c0-0.71,0-4.04,0-4.04h2.2v3.62c0,0,0.07,0.92,0.28,1.21
		C8.66,9.33,9.51,9.76,9.44,10.75z"/>
	<path class="st1" d="M23.14,13.95v-1.42h3.41v2.91c0,0-0.28,3.19-3.05,3.19c0,0-3.76,0.21-3.83-3.69c-0.07-3.9,0-5.04,0-5.04
		s0.71-3.12,3.97-2.91c0,0,2.7,0.43,3.05,3.41h-1.92c0,0-0.14-1.63-1.77-1.63c0,0-1.49,0.07-1.63,2.2v4.11c0,0,0,1.92,1.63,2.13
		c0,0,2.27,0.07,1.84-3.19L23.14,13.95z"/>
	<rect x="36.2" y="7.2" class="st1" width="1.63" height="11.43"/>
	<rect x="40.1" y="7.2" class="st1" width="1.63" height="11.43"/>
	<g>
		<g>
			<path class="st1" d="M31.37,10.47c0,0-2.77,0.21-2.91,3.12v2.63c0,0,0.14,2.06,1.77,2.48c0,0,1.2,0.28,2.41-0.92v0.78h1.56v-5.04
				C34.21,13.52,33.92,10.89,31.37,10.47z M32.72,15.86c-0.07,1.13-1.42,1.35-1.42,1.35c-1.21-0.14-1.35-1.49-1.35-1.49v-2.34
				c0-1.21,1.35-1.49,1.35-1.49c1.06-0.07,1.42,1.49,1.42,1.49S32.79,14.72,32.72,15.86z"/>
		</g>
	</g>
	<g>
		<g>
			<path class="st0" d="M46.72,15.3l-0.47,0.47l0.64,0.71l-0.07,0.09l-0.28,0.27c-1.32,0.57-1.76-0.65-1.76-0.65
				c-0.43-1.32,1.37-1.61,1.37-1.61c1.7-0.19,1.61-1.56,1.61-1.56c0-1.79-1.71-1.75-1.71-1.75c-1.27,0.02-1.64,0.82-1.75,1.36
				c-0.06,0.28-0.02,0.76,0.05,0.91c0.17,0.37,0.52,0.71,0.52,0.71s-0.46,0.25-0.56,0.33c-0.34,0.3-0.48,0.79-0.53,1.15
				c-0.05,0.26,0.04,0.81,0.1,0.95c0.1,0.26,0.24,0.46,0.38,0.62c0.16,0.17,0.35,0.3,0.53,0.39c0.38,0.19,0.79,0.24,1.1,0.23
				c0.29,0,0.49-0.04,0.49-0.04c0.31-0.07,0.56-0.25,0.73-0.41c0.17-0.16,0.38-0.31,0.38-0.31l0.55,0.55l0.47-0.49L46.72,15.3z
				 M45.97,12.25c0.4,0,0.72,0.32,0.72,0.72c0,0.4-0.32,0.72-0.72,0.72c-0.4,0-0.72-0.32-0.72-0.72
				C45.25,12.57,45.57,12.25,45.97,12.25z"/>
		</g>
	</g>
	<path class="st1" d="M53.51,14.04v-1.42h3.41v2.91c0,0-0.29,3.19-3.05,3.19c0,0-3.76,0.21-3.83-3.69c-0.07-3.9,0-5.04,0-5.04
		s0.71-3.12,3.97-2.91c0,0,2.7,0.43,3.05,3.4h-1.92c0,0-0.14-1.63-1.77-1.63c0,0-1.49,0.07-1.63,2.2v4.12c0,0,0,1.91,1.63,2.13
		c0,0,2.27,0.07,1.85-3.19L53.51,14.04z"/>
	<rect x="66.57" y="7.3" class="st1" width="1.63" height="11.42"/>
	<rect x="70.47" y="7.3" class="st1" width="1.63" height="11.42"/>
	<g>
		<g>
			<path class="st1" d="M61.74,10.56c0,0-2.77,0.21-2.91,3.13v2.62c0,0,0.14,2.06,1.77,2.49c0,0,1.21,0.29,2.41-0.92v0.78h1.56
				v-5.04C64.58,13.61,64.3,10.99,61.74,10.56z M63.09,15.96c-0.07,1.13-1.42,1.35-1.42,1.35c-1.21-0.14-1.35-1.49-1.35-1.49v-2.34
				c0-1.21,1.35-1.49,1.35-1.49c1.06-0.07,1.42,1.49,1.42,1.49S63.16,14.82,63.09,15.96z"/>
		</g>
	</g>
</g>
</svg>
