<?xml version="1.0" encoding="utf-8"?>
<!-- Generator: Adobe Illustrator 27.0.0, SVG Export Plug-In . SVG Version: 6.00 Build 0)  -->
<svg version="1.1" id="Layer_1" xmlns="http://www.w3.org/2000/svg" xmlns:xlink="http://www.w3.org/1999/xlink" x="0px" y="0px"
	 viewBox="0 0 78.88 16.37" style="enable-background:new 0 0 78.88 16.37;" xml:space="preserve">
<style type="text/css">
	.st0{fill:#00AEEF;}
	.st1{fill:#FED80E;}
</style>
<g>
	<path class="st0" d="M37.48,9.48 M37.48,9.48h1.66V3.47h-1.66V9.48z M35.82,1.66h3.33c0.92,0,1.66,0.81,1.66,1.81v6.01
		c0,1-0.74,1.81-1.66,1.81h-1.66v4.2h-1.66V1.66"/>
	<path class="st0" d="M42.51,6.94c0-1,0.74-1.81,1.66-1.81h1.67v1.81h-1.67v8.55h-1.66V6.94"/>
	<path class="st0" d="M49.21,15.63c-0.45-0.03-0.85-0.22-1.17-0.54c-0.32-0.32-0.49-0.78-0.49-1.27V5.13h1.66V15.63z M49.21,3.47
		h-1.66V1.66h1.66V3.47"/>
	<path class="st0" d="M51.32,5.13h6.65c0.92,0,1.66,0.81,1.66,1.81v8.55h-1.66V6.94h-1.67v8.55h-1.66V6.94h-1.66v8.55h-1.66V5.13"/>
	<path class="st0" d="M63.41,9.4 M63.41,9.4h1.66V6.94h-1.66V9.4z M61.75,7.7c0-1.49,1.12-2.71,2.5-2.71c1.37,0,2.49,1.22,2.49,2.71
		v3.51h-3.33v2.47h1.66v-0.94h1.66v0.18c0,1.49-1.12,2.72-2.49,2.72c-1.37,0-2.5-1.22-2.5-2.72V7.7"/>
	<path class="st0" d="M68.85,6.94c0-1,0.74-1.81,1.67-1.81h1.66v1.81h-1.66v8.55h-1.67V6.94"/>
	<path class="st0" d="M75.55,13.68 M75.55,13.68h1.67v-3.05h-1.67V13.68z M78.88,15.49h-3.33c-0.92,0-1.66-0.81-1.66-1.81v-3.05
		c0-1,0.75-1.81,1.66-1.81h1.67V6.94h-2.97V5.13h2.97c0.92,0,1.66,0.81,1.66,1.81V15.49"/>
	<path class="st1" d="M26.07,9.75c-1.1,3.16-5.95,5.29-12.08,5.29c-6.76,0-12.27-3.2-12.27-7.13c0-3.49,3.52-6.14,9.13-6.98
		c0.14-0.02,0.3-0.14,0.28-0.31C11.12,0.46,11,0.34,10.7,0.37C10.45,0.4,9.9,0.47,9.09,0.65c-2.3,0.48-4.38,1.32-5.95,2.44
		C1.11,4.53,0,6.38,0,8.28c0,2.19,1.43,4.24,4.01,5.76c2.53,1.5,5.89,2.32,9.46,2.32c3.1,0,6.12-0.64,8.51-1.81
		c2.39-1.16,4.05-2.8,4.67-4.61c0.05-0.16-0.03-0.34-0.19-0.39C26.3,9.52,26.13,9.56,26.07,9.75"/>
	<path class="st1" d="M21.21,2.64c1.39,0.02,2.73,0.41,3.04,0.62c0.01,0.01,0.05,0.03,0.05,0.11c0,0.02,0,0.05-0.01,0.08
		c-0.2,0.88-2.77,3.19-4.92,3.68C19.54,6.71,21.15,2.8,21.21,2.64z M13.24,0.86c-0.04,0.01-0.07,0.04-0.08,0.07
		c-0.02,0.03-0.02,0.07,0,0.11l1.03,2.41c0.02,0.06,0.09,0.09,0.14,0.08c0,0,2.62-0.45,3.01-0.52C17.2,3.4,15.21,9.12,15.1,9.47
		c-2.37-2.29-5.41-3.61-8.8-3.79c-1.28-0.07-2.17,0.17-2.25,0.6C4,6.5,4.14,6.83,5.05,7.15c4.41,1.54,6.75,3.04,7.81,5.02
		c0.42,0.77,1.39,1.26,2.74,1.38c0.83,0.07,1.16-0.49,1.45-1.11c0,0,1.52-3.46,1.95-4.43c0.18,0.36,0.74,1.46,0.74,1.46
		c0.06,0.11,0.16,0.17,0.27,0.16c4.33-0.23,7-2.59,7.32-4.68c0.12-1.12-0.37-2.21-1.35-3.08C24.86,0.89,21.37-1.16,13.24,0.86"/>
</g>
</svg>
